<svg class="svg-gq-blue" xmlns="http://www.w3.org/2000/svg" width="308.56" height="78.36" viewBox="0.026 17 308.555 78.357" enable-background="new 0.026 17 308.555 78.357">
  <g fill="#0398ec">
    <path d="m129.82 46.37v1.74h-4.544c1.84 1.682 2.761 3.45 2.761 5.306 0 1.668-.359 2.986-1.076 3.957-.718.973-1.574 1.679-2.566 2.12-.993.442-2.316.878-3.969 1.305-1.651.429-2.689.831-3.108 1.206-.421.378-.632.813-.632 1.306 0 .58.272 1.044.816 1.392.543.348 2.232.602 5.066.761 2.834.16 4.743.704 5.729 1.632.985.928 1.479 2.16 1.479 3.695 0 1.812-.79 3.236-2.369 4.273-1.581 1.037-3.776 1.555-6.59 1.555-2.798 0-4.957-.49-6.479-1.467-1.523-.979-2.284-2.273-2.284-3.883 0-2.609 1.942-4.225 5.828-4.848v-.088c-2.161-.508-3.24-1.457-3.24-2.849 0-1.405 1.334-2.493 4-3.262v-.087c-1.755-.521-3.085-1.387-3.99-2.598s-1.358-2.555-1.358-4.03c0-2.102.731-3.816 2.196-5.144 1.464-1.325 3.565-1.989 6.305-1.989h8.02m-8.873 28.464c2.073 0 3.722-.355 4.948-1.065 1.224-.71 1.836-1.646 1.836-2.806 0-2.348-2.123-3.521-6.371-3.521-4.841 0-7.263 1.233-7.263 3.696.001 2.464 2.284 3.696 6.85 3.696m-.304-16.03c1.464 0 2.722-.525 3.772-1.576 1.051-1.052 1.577-2.309 1.577-3.773 0-1.464-.526-2.714-1.577-3.75-1.051-1.037-2.323-1.555-3.815-1.555-1.479 0-2.726.507-3.74 1.522-1.015 1.016-1.521 2.247-1.521 3.697 0 1.508.514 2.791 1.543 3.848 1.028 1.058 2.283 1.587 3.761 1.587"/>
    <path d="m146.87 48.35l-1.24 2c-1.667-1.521-3.01-2.283-4.02-2.283-2 0-4.14 1.914-6.415 5.74v12.568h-2.132v-20h2.132v5.263h.086c2.393-3.77 4.727-5.653 7-5.653 1.306-.001 2.835.789 4.589 2.369"/>
    <path d="m164.89 55.634h-15.765c-.044.349-.066.696-.066 1.044 0 2.232.798 4.124 2.393 5.676 1.595 1.551 3.479 2.326 5.653 2.326 2.537 0 5.02-.992 7.438-2.979v2.413c-2.291 1.77-4.858 2.654-7.698 2.654-2.885 0-5.271-1-7.153-3-1.886-2-2.827-4.543-2.827-7.631 0-2.93.87-5.354 2.608-7.275 1.74-1.92 3.929-2.88 6.567-2.88 2.479 0 4.573.866 6.285 2.598 1.709 1.733 2.565 4.085 2.565 7.06m-15.483-1.718h12.96c-.755-3.9-2.863-5.85-6.328-5.85-1.639 0-3.055.511-4.251 1.533-1.195 1.022-1.989 2.462-2.381 4.317"/>
    <path d="m186.22 55.634h-15.765c-.043.349-.065.696-.065 1.044 0 2.232.797 4.124 2.392 5.676 1.595 1.551 3.48 2.326 5.653 2.326 2.537 0 5.02-.992 7.438-2.979v2.413c-2.29 1.77-4.856 2.654-7.697 2.654-2.885 0-5.271-1-7.154-3-1.885-2-2.827-4.543-2.827-7.631 0-2.93.869-5.354 2.609-7.275 1.74-1.92 3.928-2.88 6.567-2.88 2.479 0 4.573.866 6.284 2.598 1.709 1.733 2.565 4.085 2.565 7.06m-15.483-1.718h12.96c-.754-3.9-2.862-5.85-6.327-5.85-1.64 0-3.055.511-4.252 1.533-1.195 1.022-1.988 2.462-2.381 4.317"/>
    <path d="m192.64 46.37v3.479h.088c1.667-2.58 3.862-3.87 6.588-3.87 2.262 0 4.067.724 5.415 2.175 1.349 1.449 2.02 3.457 2.02 6.02v12.198h-2.131v-11.393c0-4.611-1.812-6.916-5.437-6.916-2.651 0-4.834 1.428-6.545 4.285v14.02h-2.131v-20h2.131"/>
    <path d="m221.83 46.37h7.49v30.2h-3.958v-10.547c-1.727.465-3.188.696-4.378.696-2.845 0-5.197-.956-7.06-2.87-1.857-1.914-2.787-4.342-2.787-7.285 0-3.116.966-5.595 2.896-7.436 1.932-1.842 4.529-2.762 7.794-2.762m3.532 16.221v-12.525h-2.507c-1.714 0-2.858.076-3.432.229s-1.071.361-1.492.63c-.422.269-.807.597-1.155.988-1.09 1.229-1.634 2.749-1.634 4.558 0 2.042.613 3.71 1.841 5 1.227 1.296 2.815 1.944 4.761 1.944.451 0 .822-.028 1.111-.086.291-.056.93-.247 1.918-.571l.306-.084.283-.087"/>
    <path d="m234.74 35.998h3.957v30.377h-3.957v-30.377"/>
    <path d="m253.98 46.33c3.043 0 5.573.98 7.589 2.945 2.01 1.965 3.02 4.433 3.02 7.404 0 2.885-1.022 5.279-3.066 7.187-2.044 1.907-4.617 2.859-7.72 2.859-3 0-5.509-.968-7.523-2.903-2.01-1.935-3.02-4.353-3.02-7.252 0-2.927 1.018-5.367 3.055-7.316 2.034-1.95 4.59-2.924 7.664-2.924m-.218 3.565c-1.899 0-3.457.624-4.675 1.87-1.219 1.247-1.827 2.834-1.827 4.762 0 1.913.623 3.476 1.87 4.687 1.247 1.21 2.849 1.815 4.806 1.815 1.942 0 3.534-.612 4.772-1.838 1.24-1.225 1.859-2.794 1.859-4.707 0-1.9-.645-3.472-1.936-4.719-1.289-1.246-2.912-1.87-4.869-1.87"/>
    <path d="m281.73 66.38v-2.564c-.841.92-1.801 1.635-2.882 2.146-1.08.51-2.157.767-3.229.767-1.261 0-2.425-.315-3.49-.946-1.065-.63-1.87-1.484-2.414-2.566-.543-1.078-.814-2.873-.814-5.381v-11.46h3.956v11.401c0 2.1.302 3.566.903 4.398.602.833 1.656 1.249 3.164 1.249 1.884 0 3.486-.921 4.806-2.763v-14.285h3.957v20.01l-3.957-.001"/>
    <path d="m304.6 35.998h3.98v30.377h-8.458c-2.958 0-5.317-.934-7.079-2.805-1.761-1.87-2.642-4.377-2.642-7.524 0-2.942.925-5.363 2.772-7.263 1.849-1.899 4.208-2.849 7.078-2.849 1.333 0 2.782.283 4.349.848v-10.784m0 26.986v-12.677c-1.232-.623-2.478-.936-3.74-.936-1.972 0-3.54.645-4.707 1.936-1.168 1.291-1.751 3.03-1.751 5.219 0 2.059.508 3.646 1.522 4.762.608.668 1.254 1.117 1.935 1.348.682.232 1.906.349 3.675.349h3.066"/>
    <path d="m84.64 40.07c0 0 11.479 4.99 10.782 15.886-.706 11.1-10.318 13.448-10.318 13.448s4.631 9.704-1.853 15.99c-7.418 7.188-19.12 2.438-19.12 2.438s-4.292 7.675-17.388 7.527c-10.547-.113-15.07-7.18-15.07-7.18s-12.518 3.819-18.776-2.091c-5.654-5.342-3.475-16.684-3.475-16.684s-10-4.42-9.393-15.422c.578-10.432 10.664-12.748 10.664-12.748s-3.129-8.697 2.434-14.722c6.394-6.932 18.896-2.779 18.896-2.779s5.446-6.841 17.04-6.728c10.548.106 16.229 7.306 16.229 7.306s9.393-3.127 15.06.808c6.519 4.527 4.289 14.951 4.289 14.951m-12.594 10.375c0-3.301-2.759-6.06-6.06-6.06-3.308 0-6.072 2.764-6.072 6.06 0 3.312 2.764 6.068 6.072 6.068 3.304 0 6.06-2.757 6.06-6.068m-4.807-13.387c0-3.305-2.762-6.067-6.076-6.067-3.298 0-6.06 2.762-6.06 6.067 0 3.309 2.763 6.06 6.06 6.06 3.314 0 6.076-2.756 6.076-6.06m-.157 26.2c0-3.22-2.695-5.905-5.919-5.905-3.211 0-5.897 2.685-5.897 5.905 0 3.224 2.686 5.909 5.897 5.909 3.065 0 5.919-2.851 5.919-5.909m-12.738-9.618c0-3.484-2.904-6.385-6.391-6.385-3.48 0-6.387 2.902-6.387 6.385 0 3.48 2.907 6.388 6.387 6.388 3.487 0 6.391-2.908 6.391-6.388m-.321-21.1c0-3.304-2.758-6.06-6.069-6.06-3.304 0-6.06 2.76-6.06 6.06 0 3.309 2.758 6.073 6.06 6.073 3.311 0 6.069-2.764 6.069-6.073m0 35.35c0-3.308-2.764-6.06-6.069-6.06-3.308 0-6.06 2.758-6.06 6.06 0 3.304 2.754 6.072 6.06 6.072 3.305 0 6.069-2.769 6.069-6.072m0 13.907c0-3.304-2.764-6.069-6.069-6.069-3.308 0-6.06 2.766-6.06 6.069 0 3.31 2.754 6.072 6.06 6.072 3.305 0 6.069-2.762 6.069-6.072m-13.39-44.628c0-3.302-2.755-6.06-6.06-6.06-3.318 0-6.069 2.759-6.069 6.06 0 3.312 2.751 6.069 6.069 6.069 3.3 0 6.06-2.757 6.06-6.069m0 26.08c0-3.308-2.755-6.06-6.06-6.06-3.318 0-6.069 2.755-6.069 6.06 0 3.313 2.751 6.07 6.069 6.07 3.3 0 6.06-2.752 6.06-6.07m-5.328-12.808c0-3.301-2.762-6.06-6.07-6.06-3.308 0-6.071 2.764-6.071 6.06 0 3.312 2.763 6.068 6.071 6.068 3.304 0 6.07-2.757 6.07-6.068"/>
  </g>
</svg>